<?xml version="1.0" encoding="UTF-8"?>
<svg id="Ebene_1" data-name="Ebene 1" xmlns="http://www.w3.org/2000/svg" version="1.1" viewBox="0 0 850.39 850.39">
  <defs>
    <style>
      .cls-1 {
        fill: #fefef9;
      }

      .cls-1, .cls-2, .cls-3, .cls-4 {
        stroke-width: 0px;
      }

      .cls-2 {
        fill: #f9be28;
      }

      .cls-3 {
        fill: #093c52;
      }

      .cls-4 {
        fill: #1d89a9;
      }
    </style>
  </defs>
  <circle class="cls-3" cx="425.2" cy="425.2" r="417.2"/>
  <path class="cls-1" d="M158.85,688.32l9.53-48.18,407.03-429.84c-26.84,5.32-51.11,7.97-72.83,7.97s-48.18-3.62-78.68-10.87l-40.26-9.42c-8.3-2.17-15.5-3.98-21.59-5.43-20.01-4.83-34.4-7.25-43.18-7.25-19.28,0-41.6,7.37-66.97,22.1l6.23-29.8c37.37-33.21,75.1-49.83,113.21-49.83,9.53,0,24.91,2.32,46.16,6.96l42.5,9.53c32.24,7.09,64.6,10.62,97.09,10.62,37.37,0,70.34-5.98,98.92-17.95l-10.26,49.99-399.34,426.28c30.28-7.33,57.27-10.99,80.97-10.99,14.89,0,35.78,2.32,62.65,6.96l65.58,11.36c4.64.73,15.99,2.93,34.07,6.59,16.85,3.18,29.91,4.76,39.2,4.76,37.12,0,91.12-38.62,130.24-100.84,0,0-26.17,60.76-37.55,79.59-35.45,58.66-82.07,82.07-122.37,82.07-18.81,0-46.77-4.03-83.9-12.09l-48.73-10.62c-26.87-5.86-50.8-8.79-71.81-8.79-28.82,0-74.13,9.04-135.92,27.11Z"/>
  <path class="cls-4" d="M365.16,511.18l-76.02,82.1s15.94-7.2,76.02-2.07v-80.03Z"/>
  <path class="cls-4" d="M381.36,592.79c6.9.75,14.29,1.64,22.19,2.71,0,0,23.58,6.65,53.83,11.87v-195.79s-76.02,82.1-76.02,82.1v99.11Z"/>
  <path class="cls-4" d="M473.67,609.92c22.58,3.16,47.01,4.91,67.39,2.44,3.22-.39,6.37-.98,9.44-1.74v-299.6s-76.02,82.1-76.02,82.1l-.81,216.8Z"/>
  <path class="cls-2" d="M622.58,356.14l-31.17-6.18c-5.91-1.17-10.37-1.75-13.39-1.75-4.51,0-7.68,1.28-9.5,3.85-1.14-2.95-1.7-5.65-1.7-8.08,0-3.64,1.67-5.45,5.02-5.45s13.07,1.93,29.66,5.79l31.07,7.26,3.8-1.41c5.16-1.92,8.26-4.32,9.3-7.21,2.31,5,3.46,8.15,3.46,9.45,0,2.18-1.01,3.81-3.04,4.89s-13.06,5.87-33.09,14.34c-22.5,9.51-33.75,15.78-33.75,18.8,0,2.24,4.78,4.42,14.34,6.55,9.56,2.13,19.39,3.19,29.49,3.19,8.12,0,13.46-1.93,16.02-5.79,2.27,3.18,3.41,6.05,3.41,8.62,0,3.86-3.15,5.79-9.45,5.79-5,0-12.66-.87-22.99-2.61-10.32-1.74-19.01-3.61-26.05-5.62-11.46-3.31-17.19-7-17.19-11.05,0-3.51,3.09-7.26,9.28-11.27,6.18-4.01,17.12-9.36,32.8-16.05,5.06-2.18,8.46-3.65,10.18-4.43l3.51-1.61Z"/>
  <path class="cls-2" d="M568.95,439.72c-4.69-.77-8.51-1.16-11.44-1.16-.81,0-2.09.06-3.85.17.37-4.14,1.83-6.22,4.4-6.22,1.36,0,4.14.44,8.36,1.32l2.09.39c0-6.42,1.37-11.91,4.1-16.47,2.73-4.57,6.04-6.85,9.93-6.85,2.68,0,5.9,2.15,9.68,6.44-10.16,2.2-15.86,8.27-17.11,18.21l30.42,6.05,3.3-4.46c6.01-8.32,11.86-12.49,17.55-12.49s10.49,2.21,14.52,6.63c4.03,4.42,6.86,10.59,8.47,18.51,1.98.22,4.18.33,6.6.33,1.47,0,3.06-.09,4.79-.28.07.48.13.84.17,1.1.15,1.1.22,1.8.22,2.09,0,2.6-1.41,3.91-4.24,3.91-.81,0-2.62-.26-5.45-.77-.48-.11-1.17-.26-2.09-.44,0,9.86-2.37,14.8-7.1,14.8-1.94,0-4.36-.99-7.26-2.97,4.91-2.64,7.83-6.95,8.75-12.93l-29.98-5.94-2.26,3.3c-6.23,9.35-12.14,14.03-17.71,14.03-12.69,0-20.98-8.76-24.86-26.29ZM643.82,449.24c-.84-4.44-2.59-7.96-5.25-10.56-2.66-2.6-5.84-3.91-9.54-3.91-3.41,0-7.37,3.04-11.88,9.13l26.68,5.34ZM575.17,440.99c2.09,10.3,7,15.46,14.74,15.46,3.04,0,7.11-3.37,12.21-10.12l-26.95-5.34Z"/>
  <path class="cls-2" d="M601.35,285.02h-.31c-7.53,0-13.47,1.71-17.8,5.12-4.33,3.41-6.5,8.09-6.5,14.02,0,4.56,1.49,9.33,4.48,14.3,2.99,4.97,7.07,9.31,12.25,13.02-1.58.63-2.85.95-3.81.95-3.91,0-8.31-3.32-13.2-9.96-4.89-6.64-7.34-14.06-7.34-22.26s2.58-15.1,7.74-19.87c5.16-4.77,12.33-7.16,21.51-7.16l2.67.1h.31c0-2.33-.6-4.79-1.8-7.36,2.54.75,4.31,1.71,5.3,2.86,1,1.15,1.51,2.84,1.54,5.07h.31c1.41.21,3.07.55,4.99,1.03-.07-1.96-.21-3.45-.41-4.48-.21-1.03-.67-2.35-1.39-3.96,2.88.93,4.76,2.04,5.64,3.35.88,1.3,1.31,3.43,1.31,6.38v.31c9.85,3.29,17.69,8.82,23.52,16.58,5.83,7.76,8.75,16.11,8.75,25.07,0,4.94-.94,9.09-2.83,12.46-1.89,3.36-4.15,5.04-6.79,5.04-2.4,0-5.25-1.55-8.54-4.66,5.01-2.37,8.44-4.84,10.3-7.41,1.85-2.57,2.78-5.62,2.78-9.16,0-1.58-.22-3.17-.67-4.78-.45-1.61-1.1-3.2-1.96-4.76-.86-1.56-1.9-3.07-3.11-4.53-1.22-1.46-2.6-2.85-4.14-4.17-1.54-1.32-3.23-2.54-5.07-3.65-1.84-1.12-3.77-2.1-5.79-2.96l-6.43-2.31v16.53c0,7.55.74,12.75,2.21,15.6-4.91-1.2-7.36-5.13-7.36-11.79v-21.62h-.36l-4.84-.72v17.19c0,2.81.12,5.24.36,7.28.24,2.04.86,4.28,1.85,6.72-2.95-.89-4.76-1.6-5.43-2.14s-1.16-1.48-1.47-2.86-.46-3.47-.46-6.28v-20.13Z"/>
</svg>