<?xml version="1.0" encoding="UTF-8"?>
<svg id="Ebene_1" data-name="Ebene 1" xmlns="http://www.w3.org/2000/svg" version="1.1" viewBox="0 0 850.39 850.39">
  <defs>
    <style>
      .cls-1 {
        fill: #fefef9;
      }

      .cls-1, .cls-2, .cls-3, .cls-4 {
        stroke-width: 0px;
      }

      .cls-2 {
        fill: #f9be28;
      }

      .cls-3 {
        fill: #093c52;
      }

      .cls-4 {
        fill: #1d89a9;
      }
    </style>
  </defs>
  <circle class="cls-1" cx="425.2" cy="425.2" r="415.42"/>
  <path class="cls-3" d="M159.98,687.2l9.48-47.97,405.3-428.01c-26.72,5.3-50.9,7.94-72.52,7.94s-47.98-3.61-78.34-10.82l-40.08-9.38c-8.26-2.16-15.43-3.96-21.5-5.41-19.92-4.81-34.25-7.22-43-7.22-19.2,0-41.42,7.34-66.68,22.01l6.2-29.67c37.21-33.07,74.78-49.61,112.72-49.61,9.48,0,24.81,2.31,45.97,6.93l42.32,9.48c32.1,7.06,64.32,10.58,96.67,10.58,37.21,0,70.04-5.96,98.5-17.88l-10.21,49.78-397.63,424.46c30.15-7.3,57.03-10.94,80.62-10.94,14.83,0,35.62,2.31,62.38,6.93l65.3,11.31c4.62.73,15.92,2.92,33.93,6.57,16.78,3.16,29.79,4.74,39.03,4.74,36.96,0,90.74-38.46,129.68-100.41,0,0-26.06,60.5-37.39,79.25-35.3,58.41-81.72,81.72-121.84,81.72-18.73,0-46.58-4.01-83.54-12.04l-48.52-10.58c-26.76-5.84-50.59-8.76-71.5-8.76-28.7,0-73.82,9-135.34,27Z"/>
  <path class="cls-4" d="M365.42,510.81l-75.69,81.75s15.87-7.17,75.69-2.06v-79.69Z"/>
  <path class="cls-4" d="M381.55,592.07c6.87.75,14.23,1.64,22.09,2.69,0,0,23.48,6.62,53.6,11.82v-194.95s-75.69,81.75-75.69,81.75v98.69Z"/>
  <path class="cls-4" d="M473.46,609.13c22.48,3.14,46.81,4.89,67.1,2.43,3.21-.39,6.35-.97,9.4-1.73v-298.33s-75.7,81.75-75.7,81.75l-.81,215.88Z"/>
  <path class="cls-2" d="M621.74,356.43l-31.03-6.16c-5.88-1.16-10.33-1.75-13.33-1.75-4.49,0-7.65,1.28-9.46,3.83-1.13-2.94-1.7-5.62-1.7-8.05,0-3.62,1.66-5.43,4.99-5.43s13.01,1.92,29.53,5.77l30.94,7.22,3.78-1.41c5.14-1.91,8.23-4.3,9.26-7.18,2.3,4.98,3.44,8.11,3.44,9.41,0,2.17-1.01,3.79-3.03,4.87-2.02,1.08-13,5.84-32.95,14.28-22.4,9.47-33.6,15.71-33.6,18.72,0,2.23,4.76,4.4,14.28,6.52s19.31,3.18,29.36,3.18c8.08,0,13.4-1.92,15.95-5.77,2.26,3.17,3.39,6.03,3.39,8.58,0,3.85-3.14,5.77-9.41,5.77-4.98,0-12.61-.86-22.89-2.59-10.28-1.73-18.93-3.6-25.94-5.6-11.41-3.3-17.12-6.97-17.12-11.01,0-3.49,3.08-7.23,9.24-11.23,6.16-3.99,17.04-9.32,32.66-15.98,5.04-2.17,8.42-3.64,10.13-4.41l3.49-1.6Z"/>
  <path class="cls-2" d="M568.34,439.66c-4.67-.77-8.47-1.15-11.39-1.15-.8,0-2.08.05-3.83.16.37-4.13,1.83-6.19,4.38-6.19,1.35,0,4.13.44,8.33,1.31l2.08.38c0-6.39,1.36-11.86,4.08-16.4,2.72-4.55,6.02-6.82,9.89-6.82,2.67,0,5.88,2.14,9.64,6.41-10.11,2.19-15.79,8.23-17.03,18.13l30.29,6.02,3.29-4.44c5.99-8.29,11.81-12.43,17.47-12.43s10.44,2.2,14.46,6.6c4.02,4.4,6.83,10.54,8.43,18.43,1.97.22,4.16.33,6.57.33,1.46,0,3.05-.09,4.77-.27.07.47.13.84.16,1.1.15,1.1.22,1.79.22,2.08,0,2.59-1.41,3.89-4.22,3.89-.8,0-2.61-.26-5.42-.77-.47-.11-1.17-.26-2.08-.44,0,9.82-2.36,14.73-7.07,14.73-1.94,0-4.35-.99-7.23-2.96,4.89-2.63,7.8-6.92,8.71-12.87l-29.85-5.92-2.25,3.29c-6.21,9.31-12.09,13.97-17.64,13.97-12.63,0-20.89-8.73-24.76-26.18ZM642.89,449.14c-.84-4.42-2.58-7.92-5.23-10.52-2.65-2.59-5.81-3.89-9.5-3.89-3.4,0-7.34,3.03-11.83,9.09l26.56,5.31ZM574.53,440.92c2.08,10.26,6.97,15.39,14.68,15.39,3.03,0,7.08-3.36,12.16-10.08l-26.84-5.31Z"/>
  <path class="cls-2" d="M600.6,285.62h-.31c-7.5,0-13.41,1.7-17.72,5.1-4.31,3.4-6.47,8.05-6.47,13.96,0,4.54,1.49,9.29,4.46,14.24,2.97,4.95,7.04,9.27,12.2,12.96-1.57.63-2.84.95-3.79.95-3.9,0-8.28-3.31-13.15-9.92-4.87-6.61-7.3-14-7.3-22.17s2.57-15.04,7.7-19.79c5.13-4.75,12.27-7.12,21.42-7.12l2.66.1h.31c0-2.32-.6-4.77-1.79-7.33,2.53.75,4.29,1.7,5.28,2.84s1.5,2.83,1.54,5.05h.31c1.4.21,3.06.55,4.97,1.03-.07-1.95-.21-3.43-.41-4.46s-.67-2.34-1.38-3.95c2.87.92,4.74,2.03,5.61,3.33.87,1.3,1.31,3.42,1.31,6.36v.31c9.81,3.28,17.62,8.78,23.42,16.5,5.81,7.72,8.71,16.04,8.71,24.96,0,4.92-.94,9.06-2.82,12.4-1.88,3.35-4.13,5.02-6.77,5.02-2.39,0-5.23-1.55-8.51-4.64,4.99-2.36,8.41-4.82,10.25-7.38,1.85-2.56,2.77-5.6,2.77-9.12,0-1.57-.22-3.16-.67-4.76-.44-1.61-1.09-3.18-1.95-4.74-.85-1.55-1.89-3.06-3.1-4.51-1.21-1.45-2.59-2.83-4.13-4.15-1.54-1.31-3.22-2.53-5.05-3.64s-3.75-2.09-5.77-2.95l-6.41-2.3v16.46c0,7.52.73,12.69,2.2,15.53-4.89-1.2-7.33-5.11-7.33-11.74v-21.53h-.36l-4.82-.72v17.12c0,2.8.12,5.22.36,7.25.24,2.03.85,4.26,1.85,6.69-2.94-.89-4.74-1.6-5.41-2.13-.67-.53-1.15-1.48-1.46-2.84s-.46-3.45-.46-6.25v-20.04Z"/>
</svg>